<svg width="19" height="18" viewBox="-8 0 19 18" fill="none" xmlns="http://www.w3.org/2000/svg">
    <g clip-path="url(#clip0_3_122)">
        <path
            d="M17.5629 1.65713L17.4788 1.50986L17.3234 1.43016C15.469 0.479429 13.1651 0.216812 10.8359 0.690683C8.46658 1.17278 6.24228 2.34834 4.40358 4.09029C2.56489 5.83225 1.32399 7.93945 0.815106 10.1841C0.31502 12.3906 0.59219 14.5733 1.5957 16.3301L1.67983 16.4774L1.83528 16.5571C3.08668 17.1987 4.54245 17.5268 6.07295 17.5268C6.82931 17.5254 7.58338 17.4482 8.32259 17.2965C10.692 16.8144 12.9162 15.6388 14.7549 13.8969C16.5936 12.1549 17.8348 10.0477 18.3435 7.803C18.8437 5.59646 18.5665 3.41368 17.5629 1.65713ZM16.601 2.34141C17.335 3.70751 17.5599 5.28775 17.3209 6.89502L11.7944 1.65938C13.491 1.43297 15.1592 1.64602 16.601 2.34141ZM2.55765 15.6457C1.80797 14.2505 1.58939 12.6319 1.85372 10.9891L7.47286 16.3125C5.73893 16.563 4.03037 16.3559 2.55765 15.6457ZM13.9153 13.1013C12.4148 14.5228 10.6455 15.5126 8.84391 16.0205L2.16203 9.6903C2.69811 7.98346 3.74289 6.30728 5.24337 4.88577C6.77064 3.43888 8.57646 2.4395 10.4114 1.94014L17.0246 8.20547C16.4975 9.94367 15.4426 11.6543 13.9153 13.1013Z"
            fill="#122D42" />
        <path
            d="M12.8886 6.58523L12.0489 5.78978L11.2812 6.51702L10.2167 5.50853L9.37705 6.30398L10.4416 7.3125L9.5 8.20452L8.43544 7.19603L7.5958 7.99148L8.66032 9L7.71875 9.89202L6.65419 8.88353L5.81455 9.67898L6.87907 10.6875L6.11143 11.4148L6.95106 12.2102L7.71875 11.483L8.7833 12.4915L9.62294 11.696L8.55842 10.6875L9.5 9.79548L10.5646 10.804L11.4042 10.0085L10.3397 9L11.2812 8.10798L12.3458 9.11648L13.1854 8.32103L12.1209 7.3125L12.8886 6.58523Z"
            fill="#122D42" />
    </g>
    <defs>
        <clipPath id="clip0_3_122">
            <rect width="19" height="18" fill="white" />
        </clipPath>
    </defs>
</svg>