<svg width="320" height="56" viewBox="0 0 320 56" fill="none" xmlns="http://www.w3.org/2000/svg">
<path d="M89.4876 35V17.4219H95.4993C96.9759 17.4219 98.2493 17.6641 99.3196 18.1484C100.398 18.625 101.226 19.3086 101.804 20.1992C102.382 21.082 102.671 22.1367 102.671 23.3633C102.671 24.5898 102.382 25.6523 101.804 26.5508C101.226 27.4414 100.402 28.1289 99.3314 28.6133C98.2689 29.0977 97.0032 29.3398 95.5345 29.3398H93.097V35H89.4876ZM93.097 26.1758H95.1595C96.3861 26.1758 97.3275 25.9336 97.9837 25.4492C98.6478 24.957 98.9798 24.2617 98.9798 23.3633C98.9798 22.4805 98.6478 21.7969 97.9837 21.3125C97.3275 20.8203 96.3861 20.5742 95.1595 20.5742H93.097V26.1758ZM108.812 35H105.214V16.9531H108.812V35ZM122.136 35H119.206L119.031 33.6055C118.601 34.1211 118.07 34.5234 117.437 34.8125C116.804 35.0938 116.109 35.2344 115.351 35.2344C114.531 35.2344 113.8 35.0781 113.159 34.7656C112.519 34.4453 112.015 34.0078 111.648 33.4531C111.281 32.8906 111.097 32.2539 111.097 31.543C111.097 30.793 111.296 30.1328 111.695 29.5625C112.093 28.9922 112.64 28.5469 113.335 28.2266C114.038 27.8984 114.835 27.7344 115.726 27.7344C116.249 27.7344 116.773 27.793 117.296 27.9102C117.827 28.0273 118.32 28.1914 118.773 28.4023V28.0977C118.773 27.6289 118.64 27.2266 118.374 26.8906C118.117 26.5469 117.757 26.2812 117.296 26.0938C116.843 25.9062 116.335 25.8125 115.773 25.8125C115.234 25.8125 114.699 25.8984 114.167 26.0703C113.644 26.2422 113.159 26.5 112.714 26.8438L111.8 24.2773C112.589 23.8711 113.386 23.5664 114.191 23.3633C115.003 23.1523 115.788 23.0469 116.546 23.0469C117.687 23.0469 118.675 23.2734 119.511 23.7266C120.347 24.1719 120.992 24.8047 121.445 25.625C121.906 26.4375 122.136 27.4023 122.136 28.5195V35ZM116.089 32.6445C116.534 32.6445 116.96 32.5469 117.367 32.3516C117.773 32.1562 118.101 31.8906 118.351 31.5547C118.609 31.2188 118.745 30.8477 118.761 30.4414V30.3594C118.417 30.125 118.034 29.9453 117.613 29.8203C117.199 29.6875 116.777 29.6211 116.347 29.6211C115.706 29.6211 115.183 29.7617 114.777 30.043C114.37 30.3242 114.167 30.6875 114.167 31.1328C114.167 31.4219 114.249 31.6836 114.413 31.918C114.585 32.1445 114.816 32.3242 115.105 32.457C115.394 32.582 115.722 32.6445 116.089 32.6445ZM130.632 40.8594H127.046L129.484 34.9883L123.566 23.2812H127.363L131.077 31.1562L134.335 23.2812H137.909L130.632 40.8594ZM150.46 33.6875C149.007 34.7188 147.417 35.2344 145.691 35.2344C144.409 35.2344 143.257 34.9609 142.234 34.4141C141.218 33.8594 140.413 33.1094 139.82 32.1641C139.234 31.2188 138.941 30.1523 138.941 28.9648C138.941 27.832 139.206 26.8203 139.738 25.9297C140.277 25.0391 141.007 24.3359 141.929 23.8203C142.851 23.3047 143.898 23.0469 145.07 23.0469C146.281 23.0469 147.347 23.332 148.269 23.9023C149.191 24.4648 149.909 25.2539 150.425 26.2695C150.941 27.2773 151.199 28.4453 151.199 29.7734V30.1484H142.562C142.702 30.6094 142.933 31.0156 143.253 31.3672C143.574 31.7109 143.972 31.9844 144.449 32.1875C144.925 32.3906 145.472 32.4922 146.089 32.4922C147.284 32.4922 148.398 32.1055 149.429 31.332L150.46 33.6875ZM142.409 28.4375H148.093C148.031 27.9297 147.87 27.4844 147.613 27.1016C147.363 26.7109 147.031 26.4062 146.617 26.1875C146.21 25.9688 145.753 25.8594 145.245 25.8594C144.73 25.8594 144.269 25.9727 143.863 26.1992C143.464 26.4258 143.14 26.7305 142.89 27.1133C142.64 27.4961 142.48 27.9375 142.409 28.4375ZM156.695 35H153.331V23.2812H156.261L156.378 25.3086C156.769 24.5977 157.3 24.043 157.972 23.6445C158.644 23.2461 159.413 23.0469 160.281 23.0469C160.531 23.0469 160.781 23.0664 161.031 23.1055C161.288 23.1367 161.55 23.1875 161.816 23.2578L161.394 26.2812C160.878 26.1328 160.39 26.0586 159.929 26.0586C159.281 26.0586 158.71 26.207 158.218 26.5039C157.734 26.793 157.359 27.1992 157.093 27.7227C156.827 28.2383 156.695 28.8438 156.695 29.5391V35ZM181.503 21.8398C180.988 21.3242 180.37 20.9258 179.652 20.6445C178.941 20.3633 178.179 20.2227 177.367 20.2227C176.554 20.2227 175.812 20.3633 175.14 20.6445C174.468 20.9258 173.89 21.3281 173.406 21.8516C172.921 22.375 172.546 23 172.281 23.7266C172.015 24.4453 171.882 25.25 171.882 26.1406C171.882 27.0312 172.015 27.8477 172.281 28.5898C172.554 29.332 172.937 29.9727 173.429 30.5117C173.929 31.043 174.519 31.457 175.199 31.7539C175.886 32.0508 176.644 32.1992 177.472 32.1992C178.159 32.1992 178.788 32.0938 179.359 31.8828C179.937 31.6719 180.445 31.3711 180.882 30.9805C181.32 30.5898 181.679 30.1172 181.96 29.5625C182.249 29.0078 182.449 28.3867 182.558 27.6992H177.46V24.9453H185.734L185.839 26.3047C185.839 27.6406 185.632 28.8633 185.218 29.9727C184.812 31.082 184.234 32.0391 183.484 32.8438C182.734 33.6406 181.839 34.2578 180.8 34.6953C179.769 35.1328 178.624 35.3516 177.367 35.3516C176.062 35.3516 174.851 35.1211 173.734 34.6602C172.624 34.1992 171.652 33.5547 170.816 32.7266C169.988 31.8984 169.343 30.9297 168.882 29.8203C168.421 28.7031 168.191 27.4961 168.191 26.1992C168.191 24.9023 168.417 23.7031 168.87 22.6016C169.331 21.4922 169.972 20.5234 170.792 19.6953C171.62 18.8672 172.585 18.2227 173.687 17.7617C174.788 17.3008 175.988 17.0703 177.284 17.0703C178.495 17.0703 179.667 17.2812 180.8 17.7031C181.933 18.125 182.945 18.7266 183.835 19.5078L181.503 21.8398ZM191.452 35H188.089V23.2812H191.019L191.136 25.3086C191.527 24.5977 192.058 24.043 192.73 23.6445C193.402 23.2461 194.171 23.0469 195.038 23.0469C195.288 23.0469 195.538 23.0664 195.788 23.1055C196.046 23.1367 196.308 23.1875 196.574 23.2578L196.152 26.2812C195.636 26.1328 195.148 26.0586 194.687 26.0586C194.038 26.0586 193.468 26.207 192.976 26.5039C192.492 26.793 192.117 27.1992 191.851 27.7227C191.585 28.2383 191.452 28.8438 191.452 29.5391V35ZM208.222 35H205.292L205.117 33.6055C204.687 34.1211 204.156 34.5234 203.523 34.8125C202.89 35.0938 202.195 35.2344 201.437 35.2344C200.617 35.2344 199.886 35.0781 199.245 34.7656C198.605 34.4453 198.101 34.0078 197.734 33.4531C197.367 32.8906 197.183 32.2539 197.183 31.543C197.183 30.793 197.382 30.1328 197.781 29.5625C198.179 28.9922 198.726 28.5469 199.421 28.2266C200.124 27.8984 200.921 27.7344 201.812 27.7344C202.335 27.7344 202.859 27.793 203.382 27.9102C203.913 28.0273 204.406 28.1914 204.859 28.4023V28.0977C204.859 27.6289 204.726 27.2266 204.46 26.8906C204.202 26.5469 203.843 26.2812 203.382 26.0938C202.929 25.9062 202.421 25.8125 201.859 25.8125C201.32 25.8125 200.784 25.8984 200.253 26.0703C199.73 26.2422 199.245 26.5 198.8 26.8438L197.886 24.2773C198.675 23.8711 199.472 23.5664 200.277 23.3633C201.089 23.1523 201.874 23.0469 202.632 23.0469C203.773 23.0469 204.761 23.2734 205.597 23.7266C206.433 24.1719 207.077 24.8047 207.531 25.625C207.992 26.4375 208.222 27.4023 208.222 28.5195V35ZM202.175 32.6445C202.62 32.6445 203.046 32.5469 203.452 32.3516C203.859 32.1562 204.187 31.8906 204.437 31.5547C204.695 31.2188 204.831 30.8477 204.847 30.4414V30.3594C204.503 30.125 204.12 29.9453 203.699 29.8203C203.284 29.6875 202.863 29.6211 202.433 29.6211C201.792 29.6211 201.269 29.7617 200.863 30.043C200.456 30.3242 200.253 30.6875 200.253 31.1328C200.253 31.4219 200.335 31.6836 200.499 31.918C200.671 32.1445 200.902 32.3242 201.191 32.457C201.48 32.582 201.808 32.6445 202.175 32.6445ZM222.917 35H219.964L219.788 33.4062C219.288 33.9688 218.687 34.4141 217.984 34.7422C217.288 35.0703 216.527 35.2344 215.699 35.2344C214.628 35.2344 213.671 34.9727 212.827 34.4492C211.992 33.918 211.331 33.1914 210.847 32.2695C210.363 31.3477 210.12 30.3047 210.12 29.1406C210.12 27.9688 210.363 26.9258 210.847 26.0117C211.331 25.0898 211.992 24.3672 212.827 23.8438C213.671 23.3125 214.628 23.0469 215.699 23.0469C216.464 23.0469 217.175 23.1875 217.831 23.4688C218.495 23.7422 219.07 24.125 219.554 24.6172V17.4219H222.917V35ZM216.566 32.2227C217.12 32.2227 217.62 32.0977 218.066 31.8477C218.519 31.5977 218.878 31.2578 219.144 30.8281C219.417 30.3906 219.554 29.8945 219.554 29.3398V28.918C219.554 28.3633 219.417 27.8711 219.144 27.4414C218.878 27.0117 218.519 26.6758 218.066 26.4336C217.62 26.1836 217.12 26.0586 216.566 26.0586C215.995 26.0586 215.484 26.1914 215.031 26.457C214.577 26.7227 214.218 27.0898 213.952 27.5586C213.695 28.0195 213.566 28.5469 213.566 29.1406C213.566 29.7266 213.695 30.2539 213.952 30.7227C214.218 31.1836 214.577 31.5508 215.031 31.8242C215.484 32.0898 215.995 32.2227 216.566 32.2227ZM236.57 33.6875C235.117 34.7188 233.527 35.2344 231.8 35.2344C230.519 35.2344 229.367 34.9609 228.343 34.4141C227.327 33.8594 226.523 33.1094 225.929 32.1641C225.343 31.2188 225.05 30.1523 225.05 28.9648C225.05 27.832 225.316 26.8203 225.847 25.9297C226.386 25.0391 227.117 24.3359 228.038 23.8203C228.96 23.3047 230.007 23.0469 231.179 23.0469C232.39 23.0469 233.456 23.332 234.378 23.9023C235.3 24.4648 236.019 25.2539 236.534 26.2695C237.05 27.2773 237.308 28.4453 237.308 29.7734V30.1484H228.671C228.812 30.6094 229.042 31.0156 229.363 31.3672C229.683 31.7109 230.081 31.9844 230.558 32.1875C231.034 32.3906 231.581 32.4922 232.199 32.4922C233.394 32.4922 234.507 32.1055 235.538 31.332L236.57 33.6875ZM228.519 28.4375H234.202C234.14 27.9297 233.98 27.4844 233.722 27.1016C233.472 26.7109 233.14 26.4062 232.726 26.1875C232.32 25.9688 231.863 25.8594 231.355 25.8594C230.839 25.8594 230.378 25.9727 229.972 26.1992C229.574 26.4258 229.249 26.7305 228.999 27.1133C228.749 27.4961 228.589 27.9375 228.519 28.4375ZM242.804 35H239.441V23.2812H242.37L242.488 25.3086C242.878 24.5977 243.409 24.043 244.081 23.6445C244.753 23.2461 245.523 23.0469 246.39 23.0469C246.64 23.0469 246.89 23.0664 247.14 23.1055C247.398 23.1367 247.659 23.1875 247.925 23.2578L247.503 26.2812C246.988 26.1328 246.499 26.0586 246.038 26.0586C245.39 26.0586 244.82 26.207 244.327 26.5039C243.843 26.793 243.468 27.1992 243.202 27.7227C242.937 28.2383 242.804 28.8438 242.804 29.5391V35Z" fill="#30D5C8"/>
<path d="M35.2687 29.9917C35.3584 29.8086 35.4285 29.6162 35.4778 29.4177C35.5475 28.6835 35.9133 28.0427 36.0831 27.3441C36.4141 26.7522 36.6449 26.107 37.0194 25.5285C37.4549 24.8254 37.8904 24.0868 38.3564 23.3926C38.4634 23.2246 38.5812 23.064 38.7091 22.912L39.5801 21.933C39.8808 21.6704 40.1356 21.3574 40.3335 21.0075C40.8283 20.4299 41.3751 19.901 41.9666 19.4278C42.0972 19.3367 42.2196 19.2339 42.3324 19.1207C43.0682 18.448 43.8577 17.8392 44.6927 17.3007C44.7974 17.248 44.8979 17.187 44.9932 17.1183C45.447 16.7224 45.9564 16.3984 46.5044 16.1571C47.027 15.8768 47.4842 15.4941 48.0373 15.2671C48.5904 15.0402 49.0215 14.7554 49.5136 14.5062C49.8312 14.3289 50.1652 14.1843 50.5109 14.0746C50.8093 13.9585 51.1002 13.8233 51.3818 13.6696C51.6987 13.5085 52.0336 13.3875 52.3791 13.3092C52.6523 13.1578 52.9457 13.0484 53.2501 12.9844C53.6072 12.842 54.0209 12.8375 54.378 12.6684C54.8962 12.6684 55.3535 12.348 55.8848 12.3658C56.1178 12.3315 56.3469 12.2733 56.5685 12.1923C56.7819 12.1522 57.0432 12.1522 57.2566 12.1166C57.3949 12.0785 57.5291 12.0263 57.6573 11.9609L58.0274 12.0899C58.4629 11.9119 58.4629 11.9119 59.5473 11.9208L59.9828 11.7117H63.3535L63.7236 11.8986C64.0197 11.9831 64.3464 11.8763 64.6425 12.0232C64.6773 12.0721 64.6425 12.1478 64.5467 12.1522C64.2288 12.1522 63.9152 12.1522 63.6104 12.1522L63.1401 11.9386H60.9626L60.5271 12.13C60.1265 12.1522 59.6561 12.1522 59.1815 12.1522C58.9008 12.1691 58.6266 12.2448 58.3758 12.3747L57.1869 12.437C56.795 12.5705 56.39 12.7307 55.9763 12.842C55.701 12.8683 55.431 12.9358 55.175 13.0422C54.9703 13.1668 54.709 13.0956 54.5 13.2425C54.2909 13.3893 53.8903 13.3448 53.5941 13.4916C53.3112 13.6348 53.0204 13.7611 52.7232 13.8699C51.4351 14.3702 50.1798 14.9544 48.9649 15.6187C48.8647 15.681 48.7776 15.7655 48.6775 15.8323L47.371 16.6688C46.7889 17.0181 46.2368 17.417 45.7205 17.8614C45.3982 18.1551 45.0193 18.3909 44.7058 18.6891C44.4139 18.961 44.1008 19.208 43.7695 19.4278C43.702 19.4713 43.6392 19.522 43.5822 19.5791C43.0292 20.162 42.4804 20.7405 41.9361 21.3278C41.6661 21.6215 41.5006 21.9909 41.1957 22.2712C40.9565 22.5407 40.7409 22.831 40.5512 23.1389C40.3117 23.4593 40.0809 23.7842 39.8632 24.1224C39.6609 24.419 39.4818 24.7315 39.3275 25.0568C39.252 25.2427 39.1632 25.4227 39.0619 25.5953C38.8342 25.9223 38.6524 26.2803 38.5218 26.6588C38.3999 27.037 38.1909 27.3841 38.0864 27.7801C37.9943 28.0631 37.8747 28.3359 37.7293 28.5945C37.6864 28.9376 37.6239 29.2779 37.542 29.6135C37.4705 29.8446 37.4266 30.0836 37.4113 30.3255C37.3674 31.171 37.3834 32.0187 37.4592 32.8619C37.6073 33.2045 37.7249 33.5516 37.8947 33.8676C38.2265 34.5565 38.663 35.1873 39.1881 35.7365C39.5627 36.1014 39.9198 36.4752 40.3117 36.8668L41.5616 37.4942C42.1813 37.8481 42.856 38.0905 43.5561 38.2106C44.0961 38.4954 44.7232 38.3842 45.2981 38.6111C45.4924 38.6559 45.6929 38.6649 45.8903 38.6378H48.5817L49.1173 38.4465L51.2947 38.3842L51.617 38.2195C52.0111 38.2086 52.4015 38.1381 52.7754 38.0104C52.8861 37.9659 53.0055 37.9491 53.1238 37.9614C53.5702 37.9458 54.0113 37.8572 54.4303 37.6989C54.8405 37.5559 55.2635 37.4545 55.6932 37.3963C56.0325 37.3218 56.3636 37.213 56.6818 37.0715C57.1347 36.947 57.5809 36.7984 58.0187 36.6265C58.5587 36.3773 59.1292 36.2126 59.6605 35.9501C60.4052 35.5808 61.1368 35.1847 61.8728 34.7976C62.3814 34.49 62.8742 34.1558 63.3491 33.7964C63.5793 33.6295 63.8003 33.4497 64.011 33.2579C64.2912 32.973 64.5991 32.718 64.9299 32.497C65.0925 32.3846 65.239 32.2499 65.3654 32.0965C65.6485 31.8117 65.9316 31.5269 66.2059 31.2377C66.6178 30.8562 66.982 30.4243 67.2903 29.9517C67.4847 29.6959 67.6988 29.4563 67.9304 29.2353C68.1046 29.0172 68.2309 28.7591 68.4182 28.5544C68.6893 28.2069 68.9394 27.8428 69.1672 27.4642C69.333 27.1893 69.4786 26.9023 69.6027 26.6054C69.7777 26.246 69.9234 25.8724 70.0382 25.4885C70.2225 25.0044 70.3682 24.5059 70.4737 23.9978C70.6179 23.5372 70.7171 23.0632 70.7698 22.5827C71.0616 22.0799 70.8961 21.4569 71.1748 20.9541C71.1748 20.5892 71.201 20.2243 71.2271 19.8638C71.2547 19.6849 71.294 19.508 71.3447 19.3343C71.2936 19.0892 71.2296 18.8471 71.1531 18.609C70.796 17.6606 70.1542 16.8521 69.3197 16.2995C68.5503 15.7361 67.6848 15.3241 66.7677 15.0847C66.5761 15.0357 66.3975 14.9556 66.1624 14.8756H62.1776L61.7029 15.058L60.2005 15.1336L59.8347 15.2671C59.3687 15.3294 58.881 15.2671 58.4411 15.4941C58.3675 15.5229 58.2891 15.5365 58.2103 15.5341L57.3785 15.6009C56.9953 15.8456 56.5076 15.77 56.1287 15.9569C56.0205 16.0054 55.9025 16.0267 55.7846 16.0192C55.4265 16.0318 55.0743 16.1165 54.7482 16.2684C54.3998 16.2684 54.0427 16.3129 53.6856 16.3218C53.5673 16.3243 53.4495 16.3063 53.3372 16.2684C53.3024 16.255 53.2708 16.2342 53.2445 16.2073C53.2182 16.1804 53.1979 16.1482 53.1848 16.1126C53.1762 16.0753 53.1765 16.0365 53.1856 15.9993C53.1946 15.9622 53.2123 15.9278 53.237 15.899C53.5898 15.6454 53.9904 15.454 54.3475 15.2093C54.5886 15.0772 54.8426 14.9714 55.1053 14.8934C55.2882 14.8133 55.458 14.7109 55.6366 14.6219C55.6691 14.6117 55.7027 14.6057 55.7367 14.6041C56.2855 14.5151 56.7689 14.2125 57.3132 14.1013C57.5048 14.0612 57.679 13.9366 57.8663 13.9055C58.1802 13.8665 58.4885 13.7904 58.7852 13.6785C59.094 13.6225 59.3993 13.5482 59.6997 13.456C59.8899 13.4028 60.086 13.3744 60.2833 13.3715C60.5533 13.3137 60.8102 13.2158 61.0802 13.1713C61.3502 13.1268 61.6333 13.1357 61.9076 13.0956C62.0676 13.0554 62.2235 13.0003 62.3736 12.931C62.8091 12.931 63.2446 12.8954 63.6801 12.8909C64.1156 12.8865 64.4727 12.8909 64.8341 12.8909L65.213 13.0778L66.3496 13.1401L69.1498 14.1102C69.2995 14.159 69.4452 14.22 69.5853 14.2926C69.8816 14.4893 70.1933 14.6604 70.5173 14.8044C70.8104 14.9209 71.0871 15.0765 71.3403 15.2671L72.2374 15.8501C72.2713 15.871 72.3033 15.8948 72.3332 15.9213C73.0486 16.562 73.729 17.2423 74.3713 17.9593C74.7023 18.5467 75.1813 19.0584 75.3033 19.7615C75.3482 19.9013 75.4081 20.0356 75.4818 20.162C75.4818 20.5002 75.5036 20.9007 75.5036 21.3056C75.5036 21.7105 75.5036 22.0354 75.5036 22.3647L75.3512 22.7563C75.332 22.8264 75.3174 22.8977 75.3076 22.9698C75.325 23.334 75.2733 23.6982 75.1552 24.0423C75.0028 24.3449 75.0942 24.6919 74.9505 24.9812C74.8662 25.2074 74.8106 25.4436 74.785 25.6843C74.7118 25.9252 74.6245 26.1615 74.5238 26.3918C74.4752 26.5438 74.417 26.6925 74.3496 26.8368C74.1569 27.1394 73.9921 27.4597 73.8575 27.7935C73.716 28.1258 73.5409 28.4419 73.3349 28.7369C73.1687 29.0583 72.9764 29.365 72.76 29.6535C72.4882 29.9468 72.246 30.2674 72.0371 30.6103C71.3665 31.3 70.8482 32.1232 70.1602 32.7951C69.871 33.1339 69.5402 33.433 69.1759 33.6851C68.9817 33.8243 68.8047 33.9872 68.649 34.1701C67.9284 34.8607 67.147 35.4819 66.3148 36.0257C66.0868 36.188 65.8498 36.3365 65.6049 36.4707C64.8646 36.8534 64.1112 37.205 63.3752 37.601C63.1575 37.7167 62.9397 37.7256 62.7046 37.8279C62.2691 38.0326 61.8336 38.1617 61.3981 38.3619C60.9626 38.5622 60.4966 38.6423 60.0612 38.8069C59.836 38.88 59.6061 38.9365 59.3731 38.976C59.1466 39.0338 58.9376 39.1228 58.7024 39.194L58.0579 39.4032L56.9039 39.4877L56.4684 39.6746H55.8761C55.7781 39.6922 55.6819 39.719 55.5887 39.7547C55.3815 39.8746 55.1474 39.9374 54.9093 39.9372C54.6271 39.9368 54.3486 40.0023 54.0949 40.1285L52.5664 40.1819C52.3295 40.1857 52.0946 40.2262 51.8696 40.3021C51.6799 40.357 51.483 40.381 51.286 40.3733C50.0972 40.3733 48.9083 40.3733 47.6758 40.3733L47.2055 40.1864L46.1952 40.1463C45.8391 40.1572 45.4843 40.0983 45.15 39.9728C44.9985 39.9276 44.8418 39.9036 44.684 39.9016C44.527 39.8996 44.3712 39.8726 44.2224 39.8215C43.7869 39.5945 43.2861 39.6702 42.868 39.4076C42.6312 39.2626 42.364 39.1772 42.0885 39.1584C41.9363 39.1255 41.7896 39.07 41.653 38.9938C40.9583 38.6886 40.2808 38.3439 39.6236 37.9614C39.1008 37.6763 38.6163 37.3234 38.1822 36.9113C37.3376 36.1182 36.6048 35.2091 36.0047 34.2102C35.8533 34.0219 35.7527 33.7964 35.7129 33.5561C35.4473 33.1378 35.5605 32.6216 35.3166 32.1766C35.3166 31.8518 35.2774 31.5314 35.2731 31.2065C35.2687 30.8016 35.2687 30.3967 35.2687 29.9917Z" fill="#3DD2CC"/>
</svg>
